# xmcd
#
# Track frame offsets: 
#        150
#        30600
#        63676
#        87152
#        112578
#        146629
#        171905
#        196130
#        212931
#        233857
#
# Disc length: 3586 seconds
#
# Revision: 1
# Processed by: cddbd v1.5.2PL0 Copyright (c) Steve Scherf et al.
# Submitted via: ExactAudioCopy v0.99pb5
#
DISCID=880e000a
DTITLE=Yuji Ohno Trio - Play The "Standards"
DYEAR=2003
DGENRE=Jazz
TTITLE0=C Jam Blues
TTITLE1=Autum Leaves
TTITLE2=Smoke Gets In Your Eyes
TTITLE3=Softy As In A Morning Sunrise
TTITLE4=When You Wish Upon A Star
TTITLE5=Theme From Lupin III
TTITLE6=It Could Happen To You
TTITLE7=Treasures Of Time
TTITLE8=S' Wonderful
TTITLE9=My Foolish Heart
EXTD=YEAR: 2003
EXTT0=
EXTT1=
EXTT2=
EXTT3=
EXTT4=
EXTT5=
EXTT6=
EXTT7=
EXTT8=
EXTT9=
PLAYORDER=
